# xmcd
#
# Track frame offsets: 
#        150
#        26047
#        42490
#        80395
#        103000
#        119907
#        141835
#        171515
#        222107
#        243625
#
# Disc length: 3581 seconds
#
# Revision: 0
# Processed by: cddbd v1.5.2PL0 Copyright (c) Steve Scherf et al.
# Submitted via: ExactAudioCopy v0.99pb3
#
DISCID=970dfb0a
DTITLE=Esteban - Enter the Heart (DTS)
DYEAR=1998
DGENRE=Blues
TTITLE0=Enter the Heart
TTITLE1=Veracruz Express
TTITLE2=Flamenco Wind
TTITLE3=San Antonio Sunset
TTITLE4=Bag Jam
TTITLE5=Mediterana
TTITLE6=Silver Raine
TTITLE7=Blue Lotus
TTITLE8=Sedona Sunrise
TTITLE9=Avenida Concha Espina
EXTD=
EXTT0=
EXTT1=
EXTT2=
EXTT3=
EXTT4=
EXTT5=
EXTT6=
EXTT7=
EXTT8=
EXTT9=
PLAYORDER=
